<?xml version="1.0" standalone="no"?>
<!DOCTYPE svg PUBLIC "-//W3C//DTD SVG 20010904//EN"
 "http://www.w3.org/TR/2001/REC-SVG-20010904/DTD/svg10.dtd">
<svg version="1.0" xmlns="http://www.w3.org/2000/svg"
 width="200.000000pt" height="200.000000pt" viewBox="0 0 200.000000 200.000000"
 preserveAspectRatio="xMidYMid meet">

<g transform="translate(0.000000,200.000000) scale(0.100000,-0.100000)"
fill="#000000" stroke="none">
<path d="M914 1926 c-3 -9 1 -28 11 -42 20 -32 11 -46 -11 -16 -17 25 -52 29
-60 7 -9 -23 5 -38 22 -24 27 23 27 -1 0 -30 -21 -22 -29 -44 -37 -95 -5 -36
-15 -75 -21 -86 -15 -24 -60 -39 -66 -22 -8 25 -22 10 -22 -23 0 -26 9 -45 36
-75 23 -25 34 -46 30 -56 -8 -20 -31 -12 -30 10 3 24 -20 14 -24 -11 -4 -29
24 -53 62 -53 29 0 34 4 39 30 5 23 17 34 54 52 26 13 49 31 51 41 2 10 -2 16
-10 15 -7 -2 -13 4 -13 12 0 8 8 16 18 18 14 3 17 -4 17 -32 0 -40 -28 -76
-59 -76 -28 0 -41 -22 -62 -107 -11 -43 -34 -100 -51 -128 -18 -27 -50 -84
-72 -125 -22 -41 -52 -91 -67 -110 -15 -19 -30 -53 -33 -75 l-6 -40 19 43 c11
23 25 42 30 42 17 0 0 -31 -62 -115 -69 -93 -174 -303 -211 -422 -14 -46 -33
-123 -42 -173 -25 -134 -2 -170 106 -170 59 0 74 15 24 24 -43 9 -76 39 -67
63 7 22 43 63 54 63 5 0 4 -12 -1 -26 -23 -59 -5 -80 100 -109 46 -13 86 -22
89 -19 2 2 -5 14 -16 27 -20 21 -43 86 -42 117 0 8 11 -7 25 -34 31 -63 57
-91 109 -116 56 -27 130 -26 192 2 l48 22 -38 4 c-71 6 -87 77 -24 111 31 16
60 8 55 -16 -2 -11 -12 -18 -26 -17 -28 1 -23 -20 6 -24 33 -5 56 38 44 81 -5
19 -6 40 -2 47 11 18 44 4 36 -16 -3 -9 -6 -31 -6 -50 0 -61 -65 -97 -104 -58
-9 8 -16 11 -16 5 0 -6 11 -18 25 -27 28 -18 69 -13 97 13 15 14 20 13 44 -6
33 -26 56 -27 81 -4 10 10 14 15 9 10 -18 -13 -63 -7 -78 11 -8 9 -18 43 -22
75 -6 53 -5 57 15 57 20 0 21 -3 14 -56 -7 -60 3 -84 36 -84 10 0 24 10 30 23
9 18 9 20 -2 10 -7 -7 -19 -13 -26 -13 -17 0 -17 47 0 53 20 7 47 -12 48 -36
1 -17 2 -18 6 -4 7 26 23 10 23 -22 0 -34 -25 -58 -65 -63 l-30 -4 39 -17 c71
-31 110 -32 168 -4 60 30 95 74 114 145 l13 47 0 -47 c1 -55 -12 -94 -41 -126
-28 -29 -12 -29 72 2 82 30 110 62 92 108 -6 17 -10 34 -7 36 8 9 65 -57 65
-76 0 -25 -29 -50 -68 -58 -59 -12 -32 -34 42 -34 75 0 92 39 77 169 -30 246
-130 496 -264 663 -27 33 -47 62 -44 64 9 9 35 -8 45 -29 10 -21 11 -21 11 5
1 20 -6 31 -26 42 -38 19 -66 52 -96 111 -14 28 -37 68 -52 90 -24 34 -58 150
-81 273 -4 19 -10 22 -57 22 -29 0 -58 5 -65 12 -18 18 -15 48 6 48 21 0 52
48 52 82 0 13 9 29 20 36 26 16 25 55 -3 112 -19 38 -29 47 -69 60 -48 15 -65
40 -28 40 11 0 20 6 20 14 0 36 -47 28 -56 -10 -9 -37 -24 -28 -21 13 1 29 -2
38 -16 41 -9 2 -20 -4 -23 -12z m187 -249 c-10 -9 -11 -8 -5 6 3 10 9 15 12
12 3 -3 0 -11 -7 -18z m-141 -287 c12 -8 10 -10 -10 -10 -57 0 -64 -41 -19
-112 30 -47 34 -73 16 -118 -4 -11 7 -21 39 -37 l46 -21 37 21 c20 11 38 22
40 24 2 1 -2 10 -9 18 -7 9 -13 29 -12 46 1 36 21 99 31 99 4 0 18 -26 31 -57
12 -32 47 -91 77 -132 31 -40 49 -69 41 -65 -7 5 -33 22 -57 39 -54 37 -107
39 -150 7 l-30 -22 -43 25 c-24 14 -52 25 -63 25 -36 0 -124 -48 -173 -94 -27
-26 -51 -46 -54 -46 -17 0 12 58 59 116 61 77 133 211 133 248 0 26 23 56 43
56 7 0 19 -5 27 -10z m170 -9 c5 -11 10 -26 10 -33 -1 -7 -8 -1 -16 15 -16 30
-21 31 -60 17 -24 -9 -25 -9 -14 5 18 22 67 19 80 -4z m136 -520 c14 -29 22
-56 19 -59 -3 -3 -5 -1 -5 4 0 5 -25 54 -55 109 -30 54 -55 102 -55 105 1 11
74 -108 96 -159z m-445 40 c-31 -60 -58 -108 -60 -106 -9 10 100 215 114 215
1 0 -23 -49 -54 -109z m219 -512 c0 -5 -4 -9 -10 -9 -5 0 -10 7 -10 16 0 8 5
12 10 9 6 -3 10 -10 10 -16z m-30 -29 c0 -5 -4 -10 -10 -10 -5 0 -10 5 -10 10
0 6 5 10 10 10 6 0 10 -4 10 -10z m60 6 c0 -11 -19 -15 -25 -6 -3 5 1 10 9 10
9 0 16 -2 16 -4z m-30 -41 c0 -8 -4 -15 -10 -15 -5 0 -10 7 -10 15 0 8 5 15
10 15 6 0 10 -7 10 -15z"/>
</g>
</svg>
